<svg viewBox="-181 0 1185 701" fill="none" xmlns="http://www.w3.org/2000/svg">
<g filter="url(#filter0_d)">
<path d="M1041.42 132.517H76.2437C71.8254 132.517 68.2437 136.098 68.2437 140.517V617.441C68.2437 621.859 71.8255 625.441 76.2437 625.441H1041.42C1045.84 625.441 1049.42 621.859 1049.42 617.441V140.517C1049.42 136.098 1045.84 132.517 1041.42 132.517Z" fill="#3F3D56"/>
<path opacity="0.1" d="M703.849 275.021H351.908C347.489 275.021 343.908 278.602 343.908 283.021V519.323C343.908 523.742 347.489 527.323 351.908 527.323H703.849C708.267 527.323 711.849 523.742 711.849 519.323V283.021C711.849 278.602 708.267 275.021 703.849 275.021Z" fill="white"/>
<path d="M97.4454 162.886C103.896 162.886 109.126 157.657 109.126 151.206C109.126 144.755 103.896 139.525 97.4454 139.525C90.9943 139.525 85.7647 144.755 85.7647 151.206C85.7647 157.657 90.9943 162.886 97.4454 162.886Z" fill="#404042"/>
<path d="M133.655 162.886C140.107 162.886 145.336 157.657 145.336 151.206C145.336 144.755 140.107 139.525 133.655 139.525C127.204 139.525 121.975 144.755 121.975 151.206C121.975 157.657 127.204 162.886 133.655 162.886Z" fill="#404042"/>
<path d="M169.866 162.886C176.317 162.886 181.546 157.657 181.546 151.206C181.546 144.755 176.317 139.525 169.866 139.525C163.414 139.525 158.185 144.755 158.185 151.206C158.185 157.657 163.414 162.886 169.866 162.886Z" fill="#404042"/>
<path d="M204.908 315.903H181.546V339.264H204.908V315.903Z" fill="#404042"/>
<path d="M833.893 356.711L815.732 371.405L830.426 389.566L848.587 374.872L833.893 356.711Z" fill="#404042"/>
<path d="M238.782 596.239L228.351 625.441H204.908V595.655C206.636 558.289 227.603 540.721 228.257 540.184C212.5 555.38 214.252 607.92 214.252 607.92C224.765 562.365 234.109 561.197 234.109 561.197C228.456 569.689 225.536 608.317 225.36 610.723C226.061 602.605 238.782 596.239 238.782 596.239Z" fill="#4ED042"/>
<path d="M964.151 600.211V625.441H946.128L937.286 600.666C937.286 600.666 947.366 605.712 947.927 612.148C947.787 610.163 945.474 579.606 940.988 572.878C940.988 572.878 948.406 573.801 956.746 609.929C956.746 609.929 958.124 568.264 945.637 556.209C946.163 556.642 962.785 570.565 964.151 600.211Z" fill="#109603"/>
<path d="M648.715 527.318H620.305L620.115 524.988L618.045 499.018V499.008L615.895 472.008L629.005 416.318L640.145 427.458V480.528C640.145 480.528 646.695 490.358 645.385 492.978C644.075 495.598 642.765 495.598 644.075 497.558C645.385 499.528 646.695 500.838 645.385 502.148C644.747 503 644.403 504.035 644.403 505.098C644.403 506.162 644.747 507.197 645.385 508.048C646.695 509.358 649.315 511.318 647.345 513.288C645.385 515.248 642.765 513.938 645.385 521.148C645.865 522.481 646.468 523.766 647.185 524.988C647.652 525.792 648.163 526.57 648.715 527.318Z" fill="#D0CDE1"/>
<path d="M561.189 347.847L557.258 387.159L597.225 393.056L600.173 370.452L603.122 347.847H561.189Z" fill="#FFB9B9"/>
<path opacity="0.1" d="M561.189 347.847L557.258 387.159L597.225 393.056L600.173 370.452L603.122 347.847H561.189Z" fill="black"/>
<path d="M583.138 360.624C600.507 360.624 614.588 346.543 614.588 329.174C614.588 311.805 600.507 297.724 583.138 297.724C565.769 297.724 551.688 311.805 551.688 329.174C551.688 346.543 565.769 360.624 583.138 360.624Z" fill="#FFB9B9"/>
<path d="M503.665 527.318C503.555 527.088 503.435 526.848 503.315 526.588C503.085 526.098 502.835 525.568 502.565 524.988C500.825 521.108 498.695 515.588 499.925 513.938C501.895 511.318 502.545 508.698 501.235 507.388C499.925 506.078 495.995 508.698 499.925 505.418C503.855 502.148 505.165 504.108 503.855 500.178C502.545 496.248 499.925 498.218 502.545 496.248C505.165 494.288 507.135 494.938 505.825 492.978C504.515 491.008 501.895 491.008 504.515 489.698C507.135 488.388 509.105 489.698 508.445 486.418C507.785 483.148 507.135 484.458 508.445 483.148C508.785 482.808 509.975 479.508 511.565 474.798C516.015 461.488 523.515 436.938 523.515 435.968C523.515 434.658 513.035 393.388 513.035 393.388L508.445 390.758C508.445 390.758 488.135 404.518 481.585 435.318C475.025 466.108 470.445 473.978 470.445 473.978C470.445 473.978 463.895 475.288 468.475 479.868C473.065 484.458 473.065 483.798 469.135 486.418C465.205 489.038 462.585 483.798 465.205 489.038C467.825 494.288 471.095 492.978 468.475 496.248C465.855 499.528 461.275 499.528 463.895 502.148C466.515 504.768 461.275 510.668 464.545 513.288C467.825 515.908 469.135 516.558 469.135 521.148C469.136 522.434 469.24 523.718 469.445 524.988C469.558 525.774 469.718 526.552 469.925 527.318C470.075 527.928 470.225 528.388 470.325 528.678L503.665 527.318Z" fill="#D0CDE1"/>
<path d="M503.665 527.318H506.335L506.475 526.388L503.315 526.588L491.825 527.318L470.325 528.678L503.665 527.318Z" fill="#3F3D56"/>
<path d="M517.615 499.528L511.725 479.218L511.565 474.798L508.445 390.758L547.105 377.008L553.655 371.758C553.655 371.758 554.965 356.688 556.935 355.378C557.645 354.908 558.785 355.458 560.295 356.738C562.945 358.988 566.745 363.478 571.345 368.488C578.555 376.348 593.625 375.038 598.205 372.418C598.794 372.075 599.406 371.771 600.035 371.508C603.325 370.148 604.755 371.108 604.755 371.108C608.035 373.728 600.175 382.248 600.175 382.248C600.175 382.248 602.795 388.138 619.825 394.038C636.865 399.938 640.145 427.458 640.145 427.458C640.145 427.458 619.825 482.488 620.485 486.418C621.045 489.788 618.725 497.008 618.045 499.008V499.018C617.935 499.338 617.865 499.528 617.865 499.528L619.355 524.988L619.495 527.318H520.385C520.09 526.508 519.719 525.728 519.275 524.988C519.165 524.808 519.045 524.618 518.925 524.428C513.035 515.248 517.615 499.528 517.615 499.528Z" fill="#D0CDE1"/>
<path d="M551.47 333.203C551.47 333.203 548.204 328.304 549.461 323.028C550.211 320.033 550.508 316.942 550.34 313.859C550.34 313.859 552.978 305.317 555.615 300.544C558.253 295.771 556.997 293.761 565.287 292.254C573.578 290.746 570.186 279.944 592.043 291.625C592.78 292.655 593.806 293.443 594.991 293.89C596.176 294.337 597.466 294.423 598.7 294.138C603.222 293.258 604.855 299.539 604.855 299.539C604.855 299.539 607.87 297.78 609 300.293C610.131 302.805 618.191 298.785 618.191 315.742C618.191 332.7 609.018 347.847 609.018 347.847C609.018 347.847 609.691 319.323 594.743 316.434C579.796 313.545 563.717 305.129 559.823 315.931C557.722 321.994 554.918 327.791 551.47 333.203Z" fill="#2F2E41"/>
<path d="M609.346 339.985C610.974 339.985 612.294 338.225 612.294 336.054C612.294 333.882 610.974 332.122 609.346 332.122C607.718 332.122 606.398 333.882 606.398 336.054C606.398 338.225 607.718 339.985 609.346 339.985Z" fill="#FFB9B9"/>
<path d="M359.905 256.328C352.363 256.328 348.591 256.328 346.248 258.671C343.905 261.015 343.905 264.786 343.905 272.328V511.318C343.905 518.861 343.905 522.632 346.248 524.975C348.591 527.318 352.363 527.318 359.905 527.318H757.755C765.297 527.318 769.069 527.318 771.412 524.975C773.755 522.632 773.755 518.861 773.755 511.318V272.328C773.755 264.786 773.755 261.015 771.412 258.671C769.069 256.328 765.297 256.328 757.755 256.328H359.905ZM771.425 508.988C771.425 516.531 771.425 520.302 769.082 522.645C766.739 524.988 762.967 524.988 755.425 524.988H362.245C354.703 524.988 350.931 524.988 348.588 522.645C346.245 520.302 346.245 516.531 346.245 508.988V274.668C346.245 267.126 346.245 263.355 348.588 261.011C350.931 258.668 354.703 258.668 362.245 258.668H755.425C762.967 258.668 766.739 258.668 769.082 261.011C771.425 263.355 771.425 267.126 771.425 274.668V508.988Z" fill="#BC97AD"/>
</g>
<defs>
<filter id="filter0_d" x="0" y="0" width="1184.75" height="700.517" filterUnits="userSpaceOnUse" color-interpolation-filters="sRGB">
<feFlood flood-opacity="0" result="BackgroundImageFix"/>
<feColorMatrix in="SourceAlpha" type="matrix" values="0 0 0 0 0 0 0 0 0 0 0 0 0 0 0 0 0 0 127 0"/>
<feOffset dx="4" dy="4"/>
<feGaussianBlur stdDeviation="4"/>
<feColorMatrix type="matrix" values="0 0 0 0 0.258333 0 0 0 0 0.258333 0 0 0 0 0.258333 0 0 0 0.25 0"/>
<feBlend mode="normal" in2="BackgroundImageFix" result="effect1_dropShadow"/>
<feBlend mode="normal" in="SourceGraphic" in2="effect1_dropShadow" result="shape"/>
</filter>
</defs>
</svg>
